<svg width="28" height="28" viewBox="0 0 28 28" fill="none" xmlns="http://www.w3.org/2000/svg">
  <path d="M14 2.33301C17.827 2.33301 20.9301 5.43603 20.9301 9.26311C20.9301 11.1465 20.1822 12.9529 18.8504 14.2847L14 19.1351L9.14962 14.2847C7.81782 12.9529 7.06995 11.1465 7.06995 9.26311C7.06995 5.43603 10.173 2.33301 14 2.33301Z" fill="currentColor"/>
  <path d="M14 5.89258C15.3065 5.89258 16.3656 6.95168 16.3656 8.25814V12.2087H11.6344V8.25814C11.6344 6.95168 12.6935 5.89258 14 5.89258Z" fill="white"/>
  <path d="M12.5781 14.3389C13.3469 13.7304 14.651 13.7304 15.4199 14.3389C16.1887 14.9474 17.4929 14.9474 18.2617 14.3389" stroke="white" stroke-width="1.6" stroke-linecap="round"/>
  <path d="M10.1074 16.7031C11.2756 15.8011 12.7243 15.3501 14.4536 15.3501C16.1828 15.3501 17.6315 15.8011 18.7998 16.7031" stroke="white" stroke-width="1.6" stroke-linecap="round"/>
  <path d="M5.25 24.5C7.58333 23.0972 10.5 22.3958 14 22.3958C17.5 22.3958 20.4167 23.0972 22.75 24.5" stroke="currentColor" stroke-width="1.8" stroke-linecap="round"/>
</svg>
